<?xml version="1.0" encoding="utf-8"?><svg version="1.1" width="450" height="300"><rect x="0" y="0" width="30" height="30" style="fill:#383c4a;stroke:#404552;stroke-width:5;" /><rect x="30" y="0" width="30" height="30" style="fill:#383c4a;stroke:#404552;stroke-width:5;" /><rect x="60" y="0" width="30" height="30" style="fill:#383c4a;stroke:#404552;stroke-width:5;" /><rect x="90" y="0" width="30" height="30" style="fill:#383c4a;stroke:#404552;stroke-width:5;" /><rect x="120" y="0" width="30" height="30" style="fill:#383c4a;stroke:#404552;stroke-width:5;" /><rect x="150" y="0" width="30" height="30" style="fill:#383c4a;stroke:#404552;stroke-width:5;" /><rect x="180" y="0" width="30" height="30" style="fill:#383c4a;stroke:#404552;stroke-width:5;" /><rect x="210" y="0" width="30" height="30" style="fill:#383c4a;stroke:#404552;stroke-width:5;" /><rect x="240" y="0" width="30" height="30" style="fill:#383c4a;stroke:#404552;stroke-width:5;" /><rect x="270" y="0" width="30" height="30" style="fill:#383c4a;stroke:#404552;stroke-width:5;" /><rect x="300" y="0" width="30" height="30" style="fill:#383c4a;stroke:#404552;stroke-width:5;" /><rect x="330" y="0" width="30" height="30" style="fill:#383c4a;stroke:#404552;stroke-width:5;" /><rect x="360" y="0" width="30" height="30" style="fill:#383c4a;stroke:#404552;stroke-width:5;" /><rect x="390" y="0" width="30" height="30" style="fill:#383c4a;stroke:#404552;stroke-width:5;" /><rect x="420" y="0" width="30" height="30" style="fill:#383c4a;stroke:#404552;stroke-width:5;" /><rect x="0" y="30" width="30" height="30" style="fill:#383c4a;stroke:#404552;stroke-width:5;" /><rect x="30" y="30" width="30" height="30" style="fill:#770ad2;stroke:#404552;stroke-width:5;" /><rect x="60" y="30" width="30" height="30" style="fill:#7c818c;stroke:#404552;stroke-width:5;" /><rect x="90" y="30" width="30" height="30" style="fill:#7c818c;stroke:#404552;stroke-width:5;" /><rect x="120" y="30" width="30" height="30" style="fill:#7c818c;stroke:#404552;stroke-width:5;" /><rect x="150" y="30" width="30" height="30" style="fill:#7c818c;stroke:#404552;stroke-width:5;" /><rect x="180" y="30" width="30" height="30" style="fill:#7c818c;stroke:#404552;stroke-width:5;" /><rect x="210" y="30" width="30" height="30" style="fill:#7c818c;stroke:#404552;stroke-width:5;" /><rect x="240" y="30" width="30" height="30" style="fill:#383c4a;stroke:#404552;stroke-width:5;" /><rect x="270" y="30" width="30" height="30" style="fill:#7c818c;stroke:#404552;stroke-width:5;" /><rect x="300" y="30" width="30" height="30" style="fill:#7c818c;stroke:#404552;stroke-width:5;" /><rect x="330" y="30" width="30" height="30" style="fill:#7c818c;stroke:#404552;stroke-width:5;" /><rect x="360" y="30" width="30" height="30" style="fill:#7c818c;stroke:#404552;stroke-width:5;" /><rect x="390" y="30" width="30" height="30" style="fill:#7c818c;stroke:#404552;stroke-width:5;" /><rect x="420" y="30" width="30" height="30" style="fill:#383c4a;stroke:#404552;stroke-width:5;" /><rect x="0" y="60" width="30" height="30" style="fill:#383c4a;stroke:#404552;stroke-width:5;" /><rect x="30" y="60" width="30" height="30" style="fill:#5294e2;stroke:#404552;stroke-width:5;" /><rect x="60" y="60" width="30" height="30" style="fill:#383c4a;stroke:#404552;stroke-width:5;" /><rect x="90" y="60" width="30" height="30" style="fill:#383c4a;stroke:#404552;stroke-width:5;" /><rect x="120" y="60" width="30" height="30" style="fill:#383c4a;stroke:#404552;stroke-width:5;" /><rect x="150" y="60" width="30" height="30" style="fill:#383c4a;stroke:#404552;stroke-width:5;" /><rect x="180" y="60" width="30" height="30" style="fill:#383c4a;stroke:#404552;stroke-width:5;" /><rect x="210" y="60" width="30" height="30" style="fill:#7c818c;stroke:#404552;stroke-width:5;" /><rect x="240" y="60" width="30" height="30" style="fill:#7c818c;stroke:#404552;stroke-width:5;" /><rect x="270" y="60" width="30" height="30" style="fill:#7c818c;stroke:#404552;stroke-width:5;" /><rect x="300" y="60" width="30" height="30" style="fill:#383c4a;stroke:#404552;stroke-width:5;" /><rect x="330" y="60" width="30" height="30" style="fill:#383c4a;stroke:#404552;stroke-width:5;" /><rect x="360" y="60" width="30" height="30" style="fill:#383c4a;stroke:#404552;stroke-width:5;" /><rect x="390" y="60" width="30" height="30" style="fill:#7c818c;stroke:#404552;stroke-width:5;" /><rect x="420" y="60" width="30" height="30" style="fill:#383c4a;stroke:#404552;stroke-width:5;" /><rect x="0" y="90" width="30" height="30" style="fill:#383c4a;stroke:#404552;stroke-width:5;" /><rect x="30" y="90" width="30" height="30" style="fill:#5294e2;stroke:#404552;stroke-width:5;" /><rect x="60" y="90" width="30" height="30" style="fill:#383c4a;stroke:#404552;stroke-width:5;" /><rect x="90" y="90" width="30" height="30" style="fill:#7c818c;stroke:#404552;stroke-width:5;" /><rect x="120" y="90" width="30" height="30" style="fill:#383c4a;stroke:#404552;stroke-width:5;" /><rect x="150" y="90" width="30" height="30" style="fill:#7c818c;stroke:#404552;stroke-width:5;" /><rect x="180" y="90" width="30" height="30" style="fill:#7c818c;stroke:#404552;stroke-width:5;" /><rect x="210" y="90" width="30" height="30" style="fill:#7c818c;stroke:#404552;stroke-width:5;" /><rect x="240" y="90" width="30" height="30" style="fill:#383c4a;stroke:#404552;stroke-width:5;" /><rect x="270" y="90" width="30" height="30" style="fill:#7c818c;stroke:#404552;stroke-width:5;" /><rect x="300" y="90" width="30" height="30" style="fill:#7c818c;stroke:#404552;stroke-width:5;" /><rect x="330" y="90" width="30" height="30" style="fill:#7c818c;stroke:#404552;stroke-width:5;" /><rect x="360" y="90" width="30" height="30" style="fill:#383c4a;stroke:#404552;stroke-width:5;" /><rect x="390" y="90" width="30" height="30" style="fill:#7c818c;stroke:#404552;stroke-width:5;" /><rect x="420" y="90" width="30" height="30" style="fill:#383c4a;stroke:#404552;stroke-width:5;" /><rect x="0" y="120" width="30" height="30" style="fill:#383c4a;stroke:#404552;stroke-width:5;" /><rect x="30" y="120" width="30" height="30" style="fill:#5294e2;stroke:#404552;stroke-width:5;" /><rect x="60" y="120" width="30" height="30" style="fill:#383c4a;stroke:#404552;stroke-width:5;" /><rect x="90" y="120" width="30" height="30" style="fill:#7c818c;stroke:#404552;stroke-width:5;" /><rect x="120" y="120" width="30" height="30" style="fill:#383c4a;stroke:#404552;stroke-width:5;" /><rect x="150" y="120" width="30" height="30" style="fill:#7c818c;stroke:#404552;stroke-width:5;" /><rect x="180" y="120" width="30" height="30" style="fill:#383c4a;stroke:#404552;stroke-width:5;" /><rect x="210" y="120" width="30" height="30" style="fill:#383c4a;stroke:#404552;stroke-width:5;" /><rect x="240" y="120" width="30" height="30" style="fill:#383c4a;stroke:#404552;stroke-width:5;" /><rect x="270" y="120" width="30" height="30" style="fill:#383c4a;stroke:#404552;stroke-width:5;" /><rect x="300" y="120" width="30" height="30" style="fill:#383c4a;stroke:#404552;stroke-width:5;" /><rect x="330" y="120" width="30" height="30" style="fill:#383c4a;stroke:#404552;stroke-width:5;" /><rect x="360" y="120" width="30" height="30" style="fill:#383c4a;stroke:#404552;stroke-width:5;" /><rect x="390" y="120" width="30" height="30" style="fill:#7c818c;stroke:#404552;stroke-width:5;" /><rect x="420" y="120" width="30" height="30" style="fill:#383c4a;stroke:#404552;stroke-width:5;" /><rect x="0" y="150" width="30" height="30" style="fill:#383c4a;stroke:#404552;stroke-width:5;" /><rect x="30" y="150" width="30" height="30" style="fill:#5294e2;stroke:#404552;stroke-width:5;" /><rect x="60" y="150" width="30" height="30" style="fill:#383c4a;stroke:#404552;stroke-width:5;" /><rect x="90" y="150" width="30" height="30" style="fill:#7c818c;stroke:#404552;stroke-width:5;" /><rect x="120" y="150" width="30" height="30" style="fill:#383c4a;stroke:#404552;stroke-width:5;" /><rect x="150" y="150" width="30" height="30" style="fill:#7c818c;stroke:#404552;stroke-width:5;" /><rect x="180" y="150" width="30" height="30" style="fill:#7c818c;stroke:#404552;stroke-width:5;" /><rect x="210" y="150" width="30" height="30" style="fill:#7c818c;stroke:#404552;stroke-width:5;" /><rect x="240" y="150" width="30" height="30" style="fill:#7c818c;stroke:#404552;stroke-width:5;" /><rect x="270" y="150" width="30" height="30" style="fill:#7c818c;stroke:#404552;stroke-width:5;" /><rect x="300" y="150" width="30" height="30" style="fill:#383c4a;stroke:#404552;stroke-width:5;" /><rect x="330" y="150" width="30" height="30" style="fill:#7c818c;stroke:#404552;stroke-width:5;" /><rect x="360" y="150" width="30" height="30" style="fill:#7c818c;stroke:#404552;stroke-width:5;" /><rect x="390" y="150" width="30" height="30" style="fill:#7c818c;stroke:#404552;stroke-width:5;" /><rect x="420" y="150" width="30" height="30" style="fill:#383c4a;stroke:#404552;stroke-width:5;" /><rect x="0" y="180" width="30" height="30" style="fill:#383c4a;stroke:#404552;stroke-width:5;" /><rect x="30" y="180" width="30" height="30" style="fill:#5294e2;stroke:#404552;stroke-width:5;" /><rect x="60" y="180" width="30" height="30" style="fill:#383c4a;stroke:#404552;stroke-width:5;" /><rect x="90" y="180" width="30" height="30" style="fill:#7c818c;stroke:#404552;stroke-width:5;" /><rect x="120" y="180" width="30" height="30" style="fill:#7c818c;stroke:#404552;stroke-width:5;" /><rect x="150" y="180" width="30" height="30" style="fill:#7c818c;stroke:#404552;stroke-width:5;" /><rect x="180" y="180" width="30" height="30" style="fill:#383c4a;stroke:#404552;stroke-width:5;" /><rect x="210" y="180" width="30" height="30" style="fill:#383c4a;stroke:#404552;stroke-width:5;" /><rect x="240" y="180" width="30" height="30" style="fill:#383c4a;stroke:#404552;stroke-width:5;" /><rect x="270" y="180" width="30" height="30" style="fill:#7c818c;stroke:#404552;stroke-width:5;" /><rect x="300" y="180" width="30" height="30" style="fill:#383c4a;stroke:#404552;stroke-width:5;" /><rect x="330" y="180" width="30" height="30" style="fill:#7c818c;stroke:#404552;stroke-width:5;" /><rect x="360" y="180" width="30" height="30" style="fill:#383c4a;stroke:#404552;stroke-width:5;" /><rect x="390" y="180" width="30" height="30" style="fill:#7c818c;stroke:#404552;stroke-width:5;" /><rect x="420" y="180" width="30" height="30" style="fill:#383c4a;stroke:#404552;stroke-width:5;" /><rect x="0" y="210" width="30" height="30" style="fill:#383c4a;stroke:#404552;stroke-width:5;" /><rect x="30" y="210" width="30" height="30" style="fill:#5294e2;stroke:#404552;stroke-width:5;" /><rect x="60" y="210" width="30" height="30" style="fill:#383c4a;stroke:#404552;stroke-width:5;" /><rect x="90" y="210" width="30" height="30" style="fill:#7c818c;stroke:#404552;stroke-width:5;" /><rect x="120" y="210" width="30" height="30" style="fill:#7c818c;stroke:#404552;stroke-width:5;" /><rect x="150" y="210" width="30" height="30" style="fill:#7c818c;stroke:#404552;stroke-width:5;" /><rect x="180" y="210" width="30" height="30" style="fill:#7c818c;stroke:#404552;stroke-width:5;" /><rect x="210" y="210" width="30" height="30" style="fill:#7c818c;stroke:#404552;stroke-width:5;" /><rect x="240" y="210" width="30" height="30" style="fill:#383c4a;stroke:#404552;stroke-width:5;" /><rect x="270" y="210" width="30" height="30" style="fill:#7c818c;stroke:#404552;stroke-width:5;" /><rect x="300" y="210" width="30" height="30" style="fill:#383c4a;stroke:#404552;stroke-width:5;" /><rect x="330" y="210" width="30" height="30" style="fill:#7c818c;stroke:#404552;stroke-width:5;" /><rect x="360" y="210" width="30" height="30" style="fill:#7c818c;stroke:#404552;stroke-width:5;" /><rect x="390" y="210" width="30" height="30" style="fill:#7c818c;stroke:#404552;stroke-width:5;" /><rect x="420" y="210" width="30" height="30" style="fill:#383c4a;stroke:#404552;stroke-width:5;" /><rect x="0" y="240" width="30" height="30" style="fill:#383c4a;stroke:#404552;stroke-width:5;" /><rect x="30" y="240" width="30" height="30" style="fill:#5294e2;stroke:#404552;stroke-width:5;" /><rect x="60" y="240" width="30" height="30" style="fill:#383c4a;stroke:#404552;stroke-width:5;" /><rect x="90" y="240" width="30" height="30" style="fill:#383c4a;stroke:#404552;stroke-width:5;" /><rect x="120" y="240" width="30" height="30" style="fill:#383c4a;stroke:#404552;stroke-width:5;" /><rect x="150" y="240" width="30" height="30" style="fill:#7c818c;stroke:#404552;stroke-width:5;" /><rect x="180" y="240" width="30" height="30" style="fill:#383c4a;stroke:#404552;stroke-width:5;" /><rect x="210" y="240" width="30" height="30" style="fill:#383c4a;stroke:#404552;stroke-width:5;" /><rect x="240" y="240" width="30" height="30" style="fill:#383c4a;stroke:#404552;stroke-width:5;" /><rect x="270" y="240" width="30" height="30" style="fill:#7c818c;stroke:#404552;stroke-width:5;" /><rect x="300" y="240" width="30" height="30" style="fill:#383c4a;stroke:#404552;stroke-width:5;" /><rect x="330" y="240" width="30" height="30" style="fill:#383c4a;stroke:#404552;stroke-width:5;" /><rect x="360" y="240" width="30" height="30" style="fill:#383c4a;stroke:#404552;stroke-width:5;" /><rect x="390" y="240" width="30" height="30" style="fill:#7c818c;stroke:#404552;stroke-width:5;" /><rect x="420" y="240" width="30" height="30" style="fill:#383c4a;stroke:#404552;stroke-width:5;" /><rect x="0" y="270" width="30" height="30" style="fill:#383c4a;stroke:#404552;stroke-width:5;" /><rect x="30" y="270" width="30" height="30" style="fill:#5294e2;stroke:#404552;stroke-width:5;" /><rect x="60" y="270" width="30" height="30" style="fill:#5294e2;stroke:#404552;stroke-width:5;" /><rect x="90" y="270" width="30" height="30" style="fill:#5294e2;stroke:#404552;stroke-width:5;" /><rect x="120" y="270" width="30" height="30" style="fill:#5294e2;stroke:#404552;stroke-width:5;" /><rect x="150" y="270" width="30" height="30" style="fill:#5294e2;stroke:#404552;stroke-width:5;" /><rect x="180" y="270" width="30" height="30" style="fill:#5294e2;stroke:#404552;stroke-width:5;" /><rect x="210" y="270" width="30" height="30" style="fill:#5294e2;stroke:#404552;stroke-width:5;" /><rect x="240" y="270" width="30" height="30" style="fill:#5294e2;stroke:#404552;stroke-width:5;" /><rect x="270" y="270" width="30" height="30" style="fill:#5294e2;stroke:#404552;stroke-width:5;" /><rect x="300" y="270" width="30" height="30" style="fill:#5294e2;stroke:#404552;stroke-width:5;" /><rect x="330" y="270" width="30" height="30" style="fill:#5294e2;stroke:#404552;stroke-width:5;" /><rect x="360" y="270" width="30" height="30" style="fill:#5294e2;stroke:#404552;stroke-width:5;" /><rect x="390" y="270" width="30" height="30" style="fill:#5294e2;stroke:#404552;stroke-width:5;" /><rect x="420" y="270" width="30" height="30" style="fill:#0b76d7;stroke:#404552;stroke-width:5;" /></svg>