<?xml version="1.0" encoding="utf-8"?><svg version="1.1" width="210" height="120"><rect x="0" y="0" width="30" height="30" style="fill:#7c818c;stroke:#404552;stroke-width:5;" /><rect x="30" y="0" width="30" height="30" style="fill:#7c818c;stroke:#404552;stroke-width:5;" /><rect x="60" y="0" width="30" height="30" style="fill:#7c818c;stroke:#404552;stroke-width:5;" /><rect x="90" y="0" width="30" height="30" style="fill:#7c818c;stroke:#404552;stroke-width:5;" /><rect x="120" y="0" width="30" height="30" style="fill:#7c818c;stroke:#404552;stroke-width:5;" /><rect x="150" y="0" width="30" height="30" style="fill:#7c818c;stroke:#404552;stroke-width:5;" /><rect x="180" y="0" width="30" height="30" style="fill:#7c818c;stroke:#404552;stroke-width:5;" /><rect x="0" y="30" width="30" height="30" style="fill:#5294e2;stroke:#404552;stroke-width:5;" /><rect x="30" y="30" width="30" height="30" style="fill:#770ad2;stroke:#404552;stroke-width:5;" /><rect x="60" y="30" width="30" height="30" style="fill:#7c818c;stroke:#404552;stroke-width:5;" /><rect x="90" y="30" width="30" height="30" style="fill:#383c4a;stroke:#404552;stroke-width:5;" /><rect x="120" y="30" width="30" height="30" style="fill:#383c4a;stroke:#404552;stroke-width:5;" /><rect x="150" y="30" width="30" height="30" style="fill:#7c818c;stroke:#404552;stroke-width:5;" /><rect x="180" y="30" width="30" height="30" style="fill:#7c818c;stroke:#404552;stroke-width:5;" /><rect x="0" y="60" width="30" height="30" style="fill:#5294e2;stroke:#404552;stroke-width:5;" /><rect x="30" y="60" width="30" height="30" style="fill:#5294e2;stroke:#404552;stroke-width:5;" /><rect x="60" y="60" width="30" height="30" style="fill:#5294e2;stroke:#404552;stroke-width:5;" /><rect x="90" y="60" width="30" height="30" style="fill:#383c4a;stroke:#404552;stroke-width:5;" /><rect x="120" y="60" width="30" height="30" style="fill:#383c4a;stroke:#404552;stroke-width:5;" /><rect x="150" y="60" width="30" height="30" style="fill:#7c818c;stroke:#404552;stroke-width:5;" /><rect x="180" y="60" width="30" height="30" style="fill:#7c818c;stroke:#404552;stroke-width:5;" /><rect x="0" y="90" width="30" height="30" style="fill:#7c818c;stroke:#404552;stroke-width:5;" /><rect x="30" y="90" width="30" height="30" style="fill:#7c818c;stroke:#404552;stroke-width:5;" /><rect x="60" y="90" width="30" height="30" style="fill:#5294e2;stroke:#404552;stroke-width:5;" /><rect x="90" y="90" width="30" height="30" style="fill:#5294e2;stroke:#404552;stroke-width:5;" /><rect x="120" y="90" width="30" height="30" style="fill:#5294e2;stroke:#404552;stroke-width:5;" /><rect x="150" y="90" width="30" height="30" style="fill:#5294e2;stroke:#404552;stroke-width:5;" /><rect x="180" y="90" width="30" height="30" style="fill:#0b76d7;stroke:#404552;stroke-width:5;" /></svg>